<!--?xml version="1.0" standalone="no"?-->
              <svg id="sw-js-blob-svg" viewBox="0 0 100 100" xmlns="http://www.w3.org/2000/svg" version="1.1">
                    <defs> 
                        <linearGradient id="sw-gradient" x1="0" x2="1" y1="1" y2="0">
                            <stop id="stop1" stop-color="rgba(225.943, 225.943, 225.943, 1)" offset="0%"></stop>
                            <stop id="stop2" stop-color="rgba(0, 156.081, 255, 0.73)" offset="100%"></stop>
                        </linearGradient>
                    </defs>
                <path fill="url(#sw-gradient)" d="M22.3,-29.3C29,-25.9,34.5,-19.4,37.9,-11.6C41.4,-3.8,42.9,5.3,40.6,13.4C38.3,21.6,32.2,28.8,24.8,34.2C17.4,39.7,8.7,43.4,-0.5,44.1C-9.7,44.8,-19.3,42.4,-24.9,36.3C-30.6,30.3,-32.1,20.6,-33.4,12C-34.6,3.3,-35.6,-4.3,-34.8,-12.8C-34,-21.3,-31.6,-30.6,-25.5,-34.3C-19.4,-37.9,-9.7,-35.7,-0.9,-34.4C7.8,-33.2,15.7,-32.8,22.3,-29.3Z" width="100%" height="100%" transform="translate(50 50)" stroke-width="0" style="transition: all 0.3s ease 0s;" stroke="url(#sw-gradient)"></path>
              </svg>